<?xml version="1.0" encoding="UTF-8" standalone="no"?>
<!-- Created with Inkscape (http://www.inkscape.org/) -->

<svg
   version="1.1"
   id="svg1"
   width="2933.3333"
   height="2933.3333"
   viewBox="0 0 2933.3333 2933.3333"
   sodipodi:docname="f3ca5bb0-deb6-4d4c-8699-1772d3ecae22.eps"
   xmlns:inkscape="http://www.inkscape.org/namespaces/inkscape"
   xmlns:sodipodi="http://sodipodi.sourceforge.net/DTD/sodipodi-0.dtd"
   xmlns="http://www.w3.org/2000/svg"
   xmlns:svg="http://www.w3.org/2000/svg">
  <defs
     id="defs1" />
  <sodipodi:namedview
     id="namedview1"
     pagecolor="#ffffff"
     bordercolor="#000000"
     borderopacity="0.25"
     inkscape:showpageshadow="2"
     inkscape:pageopacity="0.0"
     inkscape:pagecheckerboard="0"
     inkscape:deskcolor="#d1d1d1">
    <inkscape:page
       x="0"
       y="0"
       inkscape:label="1"
       id="page1"
       width="2933.3333"
       height="2933.3333"
       margin="0"
       bleed="0" />
  </sodipodi:namedview>
  <g
     id="g1"
     inkscape:groupmode="layer"
     inkscape:label="1">
    <g
       id="group-R5">
      <path
         id="path2"
         d="M 22000,0 H 0 V 22000 H 22000 V 0"
         style="fill:#ffffff;fill-opacity:1;fill-rule:nonzero;stroke:none"
         transform="matrix(0.13333333,0,0,-0.13333333,0,2933.3333)" />
      <path
         id="path3"
         d="M 16304.1,8161.7 C 12900.9,7285.8 12084.9,6384 11315,2562.9 c -35.2,-175 -285.3,-175 -320.6,0 -769.8,3821.1 -1585.84,4722.9 -4989,5598.8 -163.6,42.1 -163.6,274.6 0,316.7 3403.16,875.9 4219.2,1777.7 4989,5598.8 35.3,175.1 285.4,175.1 320.6,0 769.9,-3821.1 1585.9,-4722.9 4989.1,-5598.8 163.6,-42.1 163.6,-274.6 0,-316.7"
         style="fill:#fab219;fill-opacity:1;fill-rule:nonzero;stroke:none"
         transform="matrix(0.13333333,0,0,-0.13333333,0,2933.3333)" />
      <path
         id="path4"
         d="m 7858.98,14268.2 c -1359.77,-350 -1685.81,-710.3 -1993.42,-2237.1 -14.09,-70 -114.02,-70 -128.11,0 -307.6,1526.8 -633.65,1887.1 -1993.42,2237.1 -65.37,16.8 -65.37,109.7 0,126.5 1359.77,350 1685.82,710.3 1993.42,2237.1 14.09,69.9 114.02,69.9 128.11,0 307.61,-1526.8 633.65,-1887.1 1993.42,-2237.1 65.37,-16.8 65.37,-109.7 0,-126.5"
         style="fill:#fab219;fill-opacity:1;fill-rule:nonzero;stroke:none"
         transform="matrix(0.13333333,0,0,-0.13333333,0,2933.3333)" />
      <path
         id="path5"
         d="m 12251.8,18479.7 c -612.7,-157.7 -759.6,-320.1 -898.2,-1008.1 -6.4,-31.5 -51.4,-31.5 -57.8,0 -138.6,688 -285.5,850.4 -898.2,1008.1 -29.5,7.5 -29.5,49.4 0,57 612.7,157.7 759.6,320 898.2,1008 6.4,31.5 51.4,31.5 57.8,0 138.6,-688 285.5,-850.3 898.2,-1008 29.4,-7.6 29.4,-49.5 0,-57"
         style="fill:#fab219;fill-opacity:1;fill-rule:nonzero;stroke:none"
         transform="matrix(0.13333333,0,0,-0.13333333,0,2933.3333)" />
      <path
         id="path6"
         d="m 18273.4,14242.4 c -875.2,-225.2 -1085,-457.2 -1283,-1439.9 -9.1,-45 -73.4,-45 -82.5,0 -198,982.7 -407.8,1214.7 -1283.1,1439.9 -42.1,10.8 -42.1,70.6 0,81.5 875.3,225.2 1085.1,457.2 1283.1,1439.9 9.1,45 73.4,45 82.5,0 198,-982.7 407.8,-1214.7 1283,-1439.9 42.1,-10.9 42.1,-70.7 0,-81.5"
         style="fill:#fab219;fill-opacity:1;fill-rule:nonzero;stroke:none"
         transform="matrix(0.13333333,0,0,-0.13333333,0,2933.3333)" />
    </g>
  </g>
</svg>
